

<svg
  role="img"
  viewBox="0 0 24 24"
  xmlns="http://www.w3.org/2000/svg"
  fill="none"
>
 
  <path d="M12 0C5.37 0 0 5.37 0 12c0 5.3 3.438 9.799 8.207 11.385.6.11.793-.261.793-.577 0-.286-.011-1.04-.016-2.04-3.338.726-4.042-1.61-4.042-1.61-.546-1.387-1.333-1.756-1.333-1.756-1.09-.746.082-.73.082-.73 1.204.085 1.84 1.237 1.84 1.237 1.07 1.835 2.807 1.305 3.49.998.108-.776.42-1.305.762-1.605-2.665-.3-5.466-1.332-5.466-5.932 0-1.31.467-2.382 1.235-3.22-.124-.303-.535-1.523.117-3.176 0 0 1.008-.322 3.3 1.23a11.44 11.44 0 0 1 3-.403c1.02.005 2.047.137 3 .403 2.29-1.552 3.295-1.23 3.295-1.23.653 1.653.242 2.873.118 3.176.77.838 1.233 1.91 1.233 3.22 0 4.613-2.807 5.628-5.478 5.922.43.37.823 1.102.823 2.22 0 1.606-.014 2.9-.014 3.296 0 .32.19.693.8.576C20.565 21.795 24 17.295 24 12c0-6.63-5.37-12-12-12z" fill="white"/>
</svg>
